<svg version="1.1" id="Warstwa_1" 
  xmlns="http://www.w3.org/2000/svg" 
  xmlns:xlink="http://www.w3.org/1999/xlink" x="0" y="0" viewBox="0 0 434.56 440.59" xml:space="preserve">
  <style>.st0{clip-path:url(#SVGID_2_)}path{fill:rgba(44,182,125,0.1)
}</style>
  <defs>
    <circle id="SVGID_1_" cx="216.15" cy="214.72" r="214.72"/>
  </defs>
  <clipPath id="SVGID_2_">
    <use xlink:href="#SVGID_1_" overflow="visible"/>
  </clipPath>
  <g class="st0">
    <path transform="rotate(-.81 207.81 446.82)" class="st1" d="M-65.82 446.37h548v2.83h-548z"/>
    <path transform="rotate(-.81 207.81 446.82)" d="M-65.82 446.37h548v2.83h-548z"/>
    <path transform="rotate(-1.86 208.52 437.33)" class="st1" d="M-65.33 436.22h548v2.83h-548z"/>
    <path transform="rotate(-1.86 208.52 437.33)" d="M-65.33 436.22h548v2.83h-548z"/>
    <path transform="matrix(1 -.00502 .00502 1 -2.13 1.06)" class="st1" d="M-64.75 424.26h548v2.83h-548z"/>
    <path transform="matrix(1 -.00502 .00502 1 -2.13 1.06)" d="M-64.75 424.26h548v2.83h-548z"/>
    <path transform="rotate(-2.14 210.73 402.65)" class="st1" d="M-63.63 401.14h548v2.83h-548z"/>
    <path transform="rotate(-2.14 210.73 402.65)" d="M-63.63 401.14h548v2.83h-548z"/>
    <path transform="rotate(-3.53 211.8 377.03)" class="st1" d="M-62.39 375.62h548v2.83h-548z"/>
    <path transform="rotate(-3.53 211.8 377.03)" d="M-62.39 375.62h548v2.83h-548z"/>
    <path transform="rotate(-.58 213.4 357.33)" class="st1" d="M-61.37 354.64h548v2.83h-548z"/>
    <path transform="rotate(-.58 213.4 357.33)" d="M-61.37 354.64h548v2.83h-548z"/>
    <path transform="rotate(-4.55 213.26 340.73)" class="st1" d="M-60.63 339.47h548v2.83h-548z"/>
    <path transform="rotate(-4.55 213.26 340.73)" d="M-60.63 339.47h548v2.83h-548z"/>
    <path transform="matrix(1 -.00864 .00864 1 -2.85 1.86)" class="st1" d="M-60.14 329.31h548v2.83h-548z"/>
    <path transform="matrix(1 -.00864 .00864 1 -2.85 1.86)" d="M-60.14 329.31h548v2.83h-548z"/>
    <path transform="matrix(1 -.0059 .0059 1 -1.86 1.27)" class="st1" d="M-59.45 315.11h548v2.83h-548z"/>
    <path transform="matrix(1 -.0059 .0059 1 -1.86 1.27)" d="M-59.45 315.11h548v2.83h-548z"/>
    <path transform="rotate(-1.15 215.43 297)" class="st1" d="M-58.54 296.23h548v2.83h-548z"/>
    <path transform="rotate(-1.15 215.43 297)" d="M-58.54 296.23h548v2.83h-548z"/>
    <path transform="rotate(-2.5 216.1 274.18)" class="st1" d="M-58.1 272.53h548v2.83h-548z"/>
    <path transform="rotate(-2.5 216.1 274.18)" d="M-58.1 272.53h548v2.83h-548z"/>
    <path transform="rotate(-4.66 215.69 254.42)" class="st1" d="M-58.47 252.89h548v2.83h-548z"/>
    <path transform="rotate(-4.66 215.69 254.42)" d="M-58.47 252.89h548v2.83h-548z"/>
    <path transform="rotate(-4.63 215.17 233.33)" class="st1" d="M-58.87 231.87h548v2.83h-548z"/>
    <path transform="rotate(-4.63 215.17 233.33)" d="M-58.87 231.87h548v2.83h-548z"/>
    <path transform="rotate(-.81 214.34 224.85)" class="st1" d="M-59.01 224.08h548v2.83h-548z"/>
    <path transform="rotate(-.81 214.34 224.85)" d="M-59.01 224.08h548v2.83h-548z"/>
    <path transform="rotate(-2.14 214.93 211.33)" class="st1" d="M-59.28 209.87h548v2.83h-548z"/>
    <path transform="rotate(-2.14 214.93 211.33)" d="M-59.28 209.87h548v2.83h-548z"/>
    <path transform="rotate(-3.71 214.67 202.87)" class="st1" d="M-59.44 201.44h548v2.83h-548z"/>
    <path transform="rotate(-3.71 214.67 202.87)" d="M-59.44 201.44h548v2.83h-548z"/>
    <g>
      <path transform="rotate(-4.55 214 176.28)" class="st1" d="M-59.94 174.9h548v2.83h-548z"/>
      <path transform="rotate(-4.55 214 176.28)" d="M-59.94 174.9h548v2.83h-548z"/>
    </g>
    <g>
      <path transform="rotate(-4.18 213.86 160.88)" class="st1" d="M-60.24 159.4h548v2.83h-548z"/>
      <path transform="rotate(-4.18 213.86 160.88)" d="M-60.24 159.4h548v2.83h-548z"/>
    </g>
    <g>
      <path transform="rotate(-4.88 213.73 152.4)" class="st1" d="M-60.4 150.89h548v2.83h-548z"/>
      <path transform="rotate(-4.88 213.73 152.4)" d="M-60.4 150.89h548v2.83h-548z"/>
    </g>
    <g>
      <path transform="rotate(-2.56 213.15 126.05)" class="st1" d="M-60.9 124.46h548v2.83h-548z"/>
      <path transform="rotate(-2.56 213.15 126.05)" d="M-60.9 124.46h548v2.83h-548z"/>
    </g>
    <g>
      <path transform="rotate(-1.98 211.67 99.23)" class="st1" d="M-62.6 97.61h548v2.83h-548z"/>
      <path transform="rotate(-1.98 211.67 99.23)" d="M-62.6 97.61h548v2.83h-548z"/>
    </g>
    <g>
      <path transform="rotate(-4.39 210.5 89.84)" class="st1" d="M-63.39 88.46h548v2.83h-548z"/>
      <path transform="rotate(-4.39 210.5 89.84)" d="M-63.39 88.46h548v2.83h-548z"/>
    </g>
    <g>
      <path transform="rotate(-2.29 209.14 75)" class="st1" d="M-64.68 73.59h548v2.83h-548z"/>
      <path transform="rotate(-2.29 209.14 75)" d="M-64.68 73.59h548v2.83h-548z"/>
    </g>
    <g>
      <path transform="rotate(-1.15 207.67 54.3)" class="st1" d="M-66.48 52.75h548v2.83h-548z"/>
      <path transform="rotate(-1.15 207.67 54.3)" d="M-66.48 52.75h548v2.83h-548z"/>
    </g>
    <g>
      <path transform="rotate(-4.53 205.61 32.6)" class="st1" d="M-68.35 31.19h548v2.83h-548z"/>
      <path transform="rotate(-4.53 205.61 32.6)" d="M-68.35 31.19h548v2.83h-548z"/>
    </g>
    <g>
      <path transform="rotate(-.68 205.5 24.53)" class="st1" d="M-69.05 23.06h548v2.83h-548z"/>
      <path transform="rotate(-.68 205.5 24.53)" d="M-69.05 23.06h548v2.83h-548z"/>
    </g>
    <g>
      <path transform="rotate(-.81 203.36 9)" class="st1" d="M-70.4 7.44h548v2.83h-548z"/>
      <path transform="rotate(-.81 203.36 9)" d="M-70.4 7.44h548v2.83h-548z"/>
    </g>
    <g>
      <path transform="matrix(1 -.00441 .00441 1 .02 .9)" class="st1" d="M-71.61-6.52h548v2.83h-548z"/>
      <path transform="matrix(1 -.00441 .00441 1 .02 .9)" d="M-71.61-6.52h548v2.83h-548z"/>
    </g>
    <g>
      <path transform="rotate(-1.26 202.16 -12.6)" class="st1" d="M-72.25-13.99h548v2.83h-548z"/>
      <path transform="rotate(-1.26 202.16 -12.6)" d="M-72.25-13.99h548v2.83h-548z"/>
    </g>
    <g>
      <path transform="rotate(-2.56 200.81 -23.85)" class="st1" d="M-73.23-25.34h548v2.83h-548z"/>
      <path transform="rotate(-2.56 200.81 -23.85)" d="M-73.23-25.34h548v2.83h-548z"/>
    </g>
    <g>
      <path transform="rotate(-4.18 199.53 -37.53)" class="st1" d="M-74.41-38.96h548v2.83h-548z"/>
      <path transform="rotate(-4.18 199.53 -37.53)" d="M-74.41-38.96h548v2.83h-548z"/>
    </g>
    <g>
      <path transform="rotate(-2.29 198.54 -50.43)" class="st1" d="M-75.52-51.81h548v2.83h-548z"/>
      <path transform="rotate(-2.29 198.54 -50.43)" d="M-75.52-51.81h548v2.83h-548z"/>
    </g>
  </g>
  <g class="st0">
    <path transform="rotate(-1.74 223 466.57)" class="st1" d="M-51.35 464.45h548v2.83h-548z"/>
    <path transform="rotate(-1.74 223 466.57)" d="M-51.35 464.45h548v2.83h-548z"/>
    <path transform="rotate(-2.14 226.84 442.69)" class="st1" d="M-47.46 440.81h548v2.83h-548z"/>
    <path transform="rotate(-2.14 226.84 442.69)" d="M-47.46 440.81h548v2.83h-548z"/>
    <path transform="rotate(-3.47 229.75 423.52)" class="st1" d="M-44.35 421.93h548v2.83h-548z"/>
    <path transform="rotate(-3.47 229.75 423.52)" d="M-44.35 421.93h548v2.83h-548z"/>
    <path transform="rotate(-.15 230.82 411.8)" class="st1" d="M-43.19 410.37h548v2.83h-548z"/>
    <path transform="rotate(-.15 230.82 411.8)" d="M-43.19 410.37h548v2.83h-548z"/>
    <path transform="rotate(-4.58 230.88 403.24)" class="st1" d="M-43.05 401.99h548v2.83h-548z"/>
    <path transform="rotate(-4.58 230.88 403.24)" d="M-43.05 401.99h548v2.83h-548z"/>
    <path transform="rotate(-1.98 231.42 389.65)" class="st1" d="M-42.86 387.91h548v2.83h-548z"/>
    <path transform="rotate(-1.98 231.42 389.65)" d="M-42.86 387.91h548v2.83h-548z"/>
    <path transform="rotate(-2.99 231.4 374.39)" class="st1" d="M-42.66 372.86h548v2.83h-548z"/>
    <path transform="rotate(-2.99 231.4 374.39)" d="M-42.66 372.86h548v2.83h-548z"/>
    <path transform="rotate(-3.03 230.63 350.46)" class="st1" d="M-43.35 348.91h548v2.83h-548z"/>
    <path transform="rotate(-3.03 230.63 350.46)" d="M-43.35 348.91h548v2.83h-548z"/>
    <path transform="rotate(-1.15 228.38 327.02)" class="st1" d="M-45.07 325.6h548v2.83h-548z"/>
    <path transform="rotate(-1.15 228.38 327.02)" d="M-45.07 325.6h548v2.83h-548z"/>
    <path transform="rotate(-.63 227.32 302.79)" class="st1" d="M-47 300.96h548v2.83H-47z"/>
    <path transform="rotate(-.63 227.32 302.79)" d="M-47 300.96h548v2.83H-47z"/>
    <path transform="rotate(-2.72 226.1 293.67)" class="st1" d="M-47.87 292.3h548v2.83h-548z"/>
    <path transform="rotate(-2.72 226.1 293.67)" d="M-47.87 292.3h548v2.83h-548z"/>
    <path transform="rotate(-3.71 223.8 271.93)" class="st1" d="M-50.03 270.67h548v2.83h-548z"/>
    <path transform="rotate(-3.71 223.8 271.93)" d="M-50.03 270.67h548v2.83h-548z"/>
    <path transform="rotate(-2.29 222.21 252.1)" class="st1" d="M-52.03 250.47h548v2.83h-548z"/>
    <path transform="rotate(-2.29 222.21 252.1)" d="M-52.03 250.47h548v2.83h-548z"/>
    <path transform="rotate(-1.46 221.51 245)" class="st1" d="M-52.38 243.7h548v2.83h-548z"/>
    <path transform="rotate(-1.46 221.51 245)" d="M-52.38 243.7h548v2.83h-548z"/>
    <path transform="rotate(-4.03 221.34 236.73)" class="st1" d="M-52.81 235.16h548v2.83h-548z"/>
    <path transform="rotate(-4.03 221.34 236.73)" d="M-52.81 235.16h548v2.83h-548z"/>
    <path transform="rotate(-3.24 220.24 222.67)" class="st1" d="M-53.51 221.37h548v2.83h-548z"/>
    <path transform="rotate(-3.24 220.24 222.67)" d="M-53.51 221.37h548v2.83h-548z"/>
    <path transform="rotate(-3.8 220.34 216.95)" class="st1" d="M-53.82 215.43h548v2.83h-548z"/>
    <path transform="rotate(-3.8 220.34 216.95)" d="M-53.82 215.43h548v2.83h-548z"/>
    <path transform="rotate(-4.05 219.21 198.85)" class="st1" d="M-54.73 197.49h548v2.83h-548z"/>
    <path transform="rotate(-4.05 219.21 198.85)" d="M-54.73 197.49h548v2.83h-548z"/>
    <g>
      <path transform="rotate(-1.81 218.77 189.32)" class="st1" d="M-55.22 187.87h548v2.83h-548z"/>
      <path transform="rotate(-1.81 218.77 189.32)" d="M-55.22 187.87h548v2.83h-548z"/>
    </g>
    <g>
      <path transform="rotate(-3.14 217.69 167.37)" class="st1" d="M-56.34 165.95h548v2.83h-548z"/>
      <path transform="rotate(-3.14 217.69 167.37)" d="M-56.34 165.95h548v2.83h-548z"/>
    </g>
    <g>
      <path transform="rotate(-2.56 216.28 144.51)" class="st1" d="M-57.51 143.07h548v2.83h-548z"/>
      <path transform="rotate(-2.56 216.28 144.51)" d="M-57.51 143.07h548v2.83h-548z"/>
    </g>
    <g>
      <path transform="rotate(-3.93 216.07 135.47)" class="st1" d="M-57.97 134.03h548v2.83h-548z"/>
      <path transform="rotate(-3.93 216.07 135.47)" d="M-57.97 134.03h548v2.83h-548z"/>
    </g>
    <g>
      <path transform="rotate(-2.84 214.98 115.77)" class="st1" d="M-58.97 114.38h548v2.83h-548z"/>
      <path transform="rotate(-2.84 214.98 115.77)" d="M-58.97 114.38h548v2.83h-548z"/>
    </g>
    <g>
      <path transform="rotate(-3.44 214.23 102.56)" class="st1" d="M-59.64 101.29h548v2.83h-548z"/>
      <path transform="rotate(-3.44 214.23 102.56)" d="M-59.64 101.29h548v2.83h-548z"/>
    </g>
    <g>
      <path transform="rotate(-1.34 213.67 82.83)" class="st1" d="M-59.92 81.57h548v2.83h-548z"/>
      <path transform="rotate(-1.34 213.67 82.83)" d="M-59.92 81.57h548v2.83h-548z"/>
    </g>
    <g>
      <path transform="rotate(-1.98 214.34 64.57)" class="st1" d="M-59.94 63.23h548v2.83h-548z"/>
      <path transform="rotate(-1.98 214.34 64.57)" d="M-59.94 63.23h548v2.83h-548z"/>
    </g>
    <g>
      <path transform="rotate(-2.6 214 37.5)" class="st1" d="M-59.95 36.09h548v2.83h-548z"/>
      <path transform="rotate(-2.6 214 37.5)" d="M-59.95 36.09h548v2.83h-548z"/>
    </g>
    <g>
      <path transform="matrix(1 -.00557 .00557 1 -.11 1.2)" class="st1" d="M-59.96 19.79h548v2.83h-548z"/>
      <path transform="matrix(1 -.00557 .00557 1 -.11 1.2)" d="M-59.96 19.79h548v2.83h-548z"/>
    </g>
    <g>
      <path transform="rotate(-2.05 213.79 -6.05)" class="st1" d="M-59.98-7.48h548v2.83h-548z"/>
      <path transform="rotate(-2.05 213.79 -6.05)" d="M-59.98-7.48h548v2.83h-548z"/>
    </g>
    <g>
      <path transform="rotate(-3.03 213.92 -13)" class="st1" d="M-59.99-14.47h548v2.83h-548z"/>
      <path transform="rotate(-3.03 213.92 -13)" d="M-59.99-14.47h548v2.83h-548z"/>
    </g>
    <g>
      <path transform="rotate(-2.92 213.89 -19.93)" class="st1" d="M-59.99-21.4h548v2.83h-548z"/>
      <path transform="rotate(-2.92 213.89 -19.93)" d="M-59.99-21.4h548v2.83h-548z"/>
    </g>
    <g>
      <path transform="rotate(-2.76 214.14 -27.07)" class="st1" d="M-59.99-28.47h548v2.83h-548z"/>
      <path transform="rotate(-2.76 214.14 -27.07)" d="M-59.99-28.47h548v2.83h-548z"/>
    </g>
    <g>
      <path transform="rotate(-2.81 213.96 -37.5)" class="st1" d="M-60-39.03h548v2.83H-60z"/>
      <path transform="rotate(-2.81 213.96 -37.5)" d="M-60-39.03h548v2.83H-60z"/>
    </g>
    <g>
      <path transform="translate(.1 .4)" class="st1" d="M-60.02-51.23h548v2.83h-548z"/>
      <path transform="translate(.1 .4)" d="M-60.02-51.23h548v2.83h-548z"/>
    </g>
    <g>
      <path transform="rotate(-1.4 213.62 -57.96)" class="st1" d="M-60.01-59.36h548v2.83h-548z"/>
      <path transform="rotate(-1.4 213.62 -57.96)" d="M-60.01-59.36h548v2.83h-548z"/>
    </g>
  </g>
</svg>